<svg xmlns="http://www.w3.org/2000/svg" width="575" height="448" viewBox="0 0 575 448">

  <defs>
    <style>
      text { font-family: system-ui, -apple-system, "Segoe UI", sans-serif; font-size: 12px; fill: #111827; }
      .shape-rect { fill: #ffffff; stroke: #9ca3af; stroke-width: 1; }
      .shape-entity { fill: #ffffff; stroke: #111827; stroke-width: 2; }
      .shape-circle { fill: #ffffff; stroke: #9ca3af; stroke-width: 1; }
      .shape-pill { fill: #ffffff; stroke: #9ca3af; stroke-width: 1; }
      .shape-db { fill: #ffffff; stroke: #9ca3af; stroke-width: 1; }
      .conn { stroke: #111827; stroke-width: 2; fill: none; }
    </style>
    <marker id="arrow-end" markerWidth="10" markerHeight="7" refX="10" refY="3.5"
            orient="auto" markerUnits="strokeWidth">
      <polygon points="0 0, 10 3.5, 0 7" fill="#111827"/>
    </marker>
    <marker id="arrow-start" markerWidth="10" markerHeight="7" refX="0" refY="3.5"
            orient="auto" markerUnits="strokeWidth">
      <polygon points="10 0, 0 3.5, 10 7" fill="#111827"/>
    </marker>
  </defs>
        
<rect class="shape-rect" x="245" y="125" width="120" height="40" rx="4" ry="4" />
<text x="305" y="149" text-anchor="middle">Index.php</text>
<rect class="shape-rect" x="415" y="130" width="120" height="40" rx="4" ry="4" />
<text x="475" y="154" text-anchor="middle">recipe_details</text>
<rect class="shape-rect" x="246" y="273" width="120" height="40" rx="4" ry="4" />
<text x="306" y="297" text-anchor="middle">Profile.php</text>
<rect class="shape-rect" x="246" y="368" width="120" height="40" rx="4" ry="4" />
<text x="306" y="392" text-anchor="middle">Update.php</text>
<rect class="shape-rect" x="49" y="270" width="120" height="40" rx="4" ry="4" />
<text x="109" y="294" text-anchor="middle">Planer</text>
<rect class="shape-rect" x="40" y="134" width="120" height="40" rx="4" ry="4" />
<text x="100" y="158" text-anchor="middle">login.php</text>
<rect class="shape-rect" x="45" y="40" width="120" height="40" rx="4" ry="4" />
<text x="105" y="64" text-anchor="middle">register.php</text>
<path class="conn" d="M 365 146.76470588235293 L 415 148.23529411764707" marker-start="url(#arrow-start)" marker-end="url(#arrow-end)" />
<path class="conn" d="M 305.86486486486484 273 L 305.13513513513516 165" marker-start="url(#arrow-start)" marker-end="url(#arrow-end)" />
<path class="conn" d="M 306 313 L 306 368" marker-end="url(#arrow-end)" />
<path class="conn" d="M 246 292.0862944162437 H 169 V 290.9137055837563" marker-end="url(#arrow-end)" />
<path class="conn" d="M 246 292.0862944162437 L 169 290.9137055837563" marker-end="url(#arrow-end)" />
<path class="conn" d="M 277.9655172413793 165 L 136.0344827586207 270" marker-start="url(#arrow-start)" marker-end="url(#arrow-end)" />
<path class="conn" d="M 129.64028776978418 174 L 276.35971223021585 273" marker-start="url(#arrow-start)" marker-end="url(#arrow-end)" />
<path class="conn" d="M 245 147.6341463414634 L 160 151.3658536585366" marker-end="url(#arrow-end)" />
<path class="conn" d="M 257.94117647058823 125 L 152.05882352941177 80" marker-end="url(#arrow-end)" />
</svg>